<mxGraphModel dx="0" dy="0" grid="1" gridSize="10" guides="1" tooltips="1" connect="1" arrows="1" fold="1" page="0" pageScale="1" background="none" math="0" shadow="0">
  <root>
    <mxCell id="0" />
    <mxCell id="1" parent="0" />
    <mxCell id="node9" parent="1" vertex="1" value="&lt;p style=&quot;margin:0px;margin-top:4px;text-align:center;&quot;&gt;&lt;b&gt;actions/Action.ts&lt;/b&gt;&lt;/p&gt;&lt;hr size=&quot;1&quot;/&gt;&lt;p style=&quot;margin:0 0 0 4px;line-height:1.6;&quot;&gt; Action: &lt;br/&gt; Agent: &lt;/p&gt;" style="verticalAlign=top;align=left;overflow=fill;fontSize=14;fontFamily=Helvetica;html=1;rounded=0;shadow=0;comic=0;labelBackgroundColor=none;strokeWidth=1;">
      <mxGeometry x="165" y="626" width="148" height="84" as="geometry" />
    </mxCell>
    <mxCell id="node1" parent="1" vertex="1" value="&lt;p style=&quot;margin:0px;margin-top:4px;text-align:center;&quot;&gt;&lt;b&gt;commands/AccionDieku.ts&lt;/b&gt;&lt;/p&gt;&lt;hr size=&quot;1&quot;/&gt;&lt;p style=&quot;margin:0 0 0 4px;line-height:1.6;&quot;&gt; Action: &lt;br/&gt; Agent: &lt;/p&gt;" style="verticalAlign=top;align=left;overflow=fill;fontSize=14;fontFamily=Helvetica;html=1;rounded=0;shadow=0;comic=0;labelBackgroundColor=none;strokeWidth=1;">
      <mxGeometry x="-83" y="580" width="214" height="84" as="geometry" />
    </mxCell>
    <mxCell id="node28" parent="1" vertex="1" value="&lt;p style=&quot;margin:0px;margin-top:4px;text-align:center;&quot;&gt;&lt;b&gt;commands/ActionRead.ts&lt;/b&gt;&lt;/p&gt;&lt;hr size=&quot;1&quot;/&gt;&lt;p style=&quot;margin:0 0 0 4px;line-height:1.6;&quot;&gt; Action: &lt;br/&gt; ActionRead: &lt;br/&gt; Agent: &lt;/p&gt;" style="verticalAlign=top;align=left;overflow=fill;fontSize=14;fontFamily=Helvetica;html=1;rounded=0;shadow=0;comic=0;labelBackgroundColor=none;strokeWidth=1;">
      <mxGeometry x="-80" y="456" width="208" height="108" as="geometry" />
    </mxCell>
    <mxCell id="node7" parent="1" vertex="1" value="&lt;p style=&quot;margin:0px;margin-top:4px;text-align:center;&quot;&gt;&lt;b&gt;commands/ActionShare.ts&lt;/b&gt;&lt;/p&gt;&lt;hr size=&quot;1&quot;/&gt;&lt;p style=&quot;margin:0 0 0 4px;line-height:1.6;&quot;&gt; Action: &lt;br/&gt; ActionShare: &lt;br/&gt; Agent: &lt;/p&gt;" style="verticalAlign=top;align=left;overflow=fill;fontSize=14;fontFamily=Helvetica;html=1;rounded=0;shadow=0;comic=0;labelBackgroundColor=none;strokeWidth=1;">
      <mxGeometry x="-81" y="698" width="211" height="108" as="geometry" />
    </mxCell>
    <mxCell id="node2" parent="1" vertex="1" value="&lt;p style=&quot;margin:0px;margin-top:4px;text-align:center;&quot;&gt;&lt;b&gt;config/AgentConfig.ts&lt;/b&gt;&lt;/p&gt;&lt;hr size=&quot;1&quot;/&gt;&lt;p style=&quot;margin:0 0 0 4px;line-height:1.6;&quot;&gt; Action: &lt;br/&gt; AgentConfig: &lt;/p&gt;" style="verticalAlign=top;align=left;overflow=fill;fontSize=14;fontFamily=Helvetica;html=1;rounded=0;shadow=0;comic=0;labelBackgroundColor=none;strokeWidth=1;">
      <mxGeometry x="36" y="1030" width="184" height="84" as="geometry" />
    </mxCell>
    <mxCell id="node13" parent="1" vertex="1" value="&lt;p style=&quot;margin:0px;margin-top:4px;text-align:center;&quot;&gt;&lt;b&gt;config/DataHandlerConfig.ts&lt;/b&gt;&lt;/p&gt;&lt;hr size=&quot;1&quot;/&gt;&lt;p style=&quot;margin:0 0 0 4px;line-height:1.6;&quot;&gt; DataHandlerConfig: &lt;/p&gt;" style="verticalAlign=top;align=left;overflow=fill;fontSize=14;fontFamily=Helvetica;html=1;rounded=0;shadow=0;comic=0;labelBackgroundColor=none;strokeWidth=1;">
      <mxGeometry x="-444" y="2184" width="229" height="60" as="geometry" />
    </mxCell>
    <mxCell id="node19" parent="1" vertex="1" value="&lt;p style=&quot;margin:0px;margin-top:4px;text-align:center;&quot;&gt;&lt;b&gt;config/ExperimentConfig.ts&lt;/b&gt;&lt;/p&gt;&lt;hr size=&quot;1&quot;/&gt;&lt;p style=&quot;margin:0 0 0 4px;line-height:1.6;&quot;&gt; DataHandlerConfig: &lt;br/&gt; ExperimentConfig: &lt;br/&gt; SimulationConfig: &lt;/p&gt;" style="verticalAlign=top;align=left;overflow=fill;fontSize=14;fontFamily=Helvetica;html=1;rounded=0;shadow=0;comic=0;labelBackgroundColor=none;strokeWidth=1;">
      <mxGeometry x="4" y="2162" width="219" height="108" as="geometry" />
    </mxCell>
    <mxCell id="node31" parent="1" vertex="1" value="&lt;p style=&quot;margin:0px;margin-top:4px;text-align:center;&quot;&gt;&lt;b&gt;config/SimulationConfig.ts&lt;/b&gt;&lt;/p&gt;&lt;hr size=&quot;1&quot;/&gt;&lt;p style=&quot;margin:0 0 0 4px;line-height:1.6;&quot;&gt; AgentConfig: &lt;br/&gt; SimulationConfig: &lt;/p&gt;" style="verticalAlign=top;align=left;overflow=fill;fontSize=14;fontFamily=Helvetica;html=1;rounded=0;shadow=0;comic=0;labelBackgroundColor=none;strokeWidth=1;">
      <mxGeometry x="529" y="2464" width="215" height="84" as="geometry" />
    </mxCell>
    <mxCell id="node21" parent="1" vertex="1" value="&lt;p style=&quot;margin:0px;margin-top:4px;text-align:center;&quot;&gt;&lt;b&gt;data/ActionConfigData.ts&lt;/b&gt;&lt;/p&gt;&lt;hr size=&quot;1&quot;/&gt;&lt;p style=&quot;margin:0 0 0 4px;line-height:1.6;&quot;&gt; ActionConfigData: &lt;/p&gt;" style="verticalAlign=top;align=left;overflow=fill;fontSize=14;fontFamily=Helvetica;html=1;rounded=0;shadow=0;comic=0;labelBackgroundColor=none;strokeWidth=1;">
      <mxGeometry x="1455" y="238" width="207" height="60" as="geometry" />
    </mxCell>
    <mxCell id="node22" parent="1" vertex="1" value="&lt;p style=&quot;margin:0px;margin-top:4px;text-align:center;&quot;&gt;&lt;b&gt;data/AgentConfigData.ts&lt;/b&gt;&lt;/p&gt;&lt;hr size=&quot;1&quot;/&gt;&lt;p style=&quot;margin:0 0 0 4px;line-height:1.6;&quot;&gt; ActionConfigData: &lt;br/&gt; AgentConfigData: &lt;/p&gt;" style="verticalAlign=top;align=left;overflow=fill;fontSize=14;fontFamily=Helvetica;html=1;rounded=0;shadow=0;comic=0;labelBackgroundColor=none;strokeWidth=1;">
      <mxGeometry x="1354" y="-19" width="204" height="84" as="geometry" />
    </mxCell>
    <mxCell id="node4" parent="1" vertex="1" value="&lt;p style=&quot;margin:0px;margin-top:4px;text-align:center;&quot;&gt;&lt;b&gt;data/ExperimentConfigData.ts&lt;/b&gt;&lt;/p&gt;&lt;hr size=&quot;1&quot;/&gt;&lt;p style=&quot;margin:0 0 0 4px;line-height:1.6;&quot;&gt; AgentConfigData: &lt;br/&gt; ExperimentConfigData: &lt;/p&gt;" style="verticalAlign=top;align=left;overflow=fill;fontSize=14;fontFamily=Helvetica;html=1;rounded=0;shadow=0;comic=0;labelBackgroundColor=none;strokeWidth=1;">
      <mxGeometry x="1357" y="99" width="239" height="84" as="geometry" />
    </mxCell>
    <mxCell id="node18" parent="1" vertex="1" value="&lt;p style=&quot;margin:0px;margin-top:4px;text-align:center;&quot;&gt;&lt;b&gt;data/MatrixData.ts&lt;/b&gt;&lt;/p&gt;&lt;hr size=&quot;1&quot;/&gt;&lt;p style=&quot;margin:0 0 0 4px;line-height:1.6;&quot;&gt; MatrixData: &lt;br/&gt; RowData: &lt;/p&gt;" style="verticalAlign=top;align=left;overflow=fill;fontSize=14;fontFamily=Helvetica;html=1;rounded=0;shadow=0;comic=0;labelBackgroundColor=none;strokeWidth=1;">
      <mxGeometry x="-1456" y="400" width="162" height="84" as="geometry" />
    </mxCell>
    <mxCell id="node12" parent="1" vertex="1" value="&lt;p style=&quot;margin:0px;margin-top:4px;text-align:center;&quot;&gt;&lt;b&gt;data/RowData.ts&lt;/b&gt;&lt;/p&gt;&lt;hr size=&quot;1&quot;/&gt;&lt;p style=&quot;margin:0 0 0 4px;line-height:1.6;&quot;&gt; RowData: &lt;/p&gt;" style="verticalAlign=top;align=left;overflow=fill;fontSize=14;fontFamily=Helvetica;html=1;rounded=0;shadow=0;comic=0;labelBackgroundColor=none;strokeWidth=1;">
      <mxGeometry x="-1456" y="611" width="149" height="60" as="geometry" />
    </mxCell>
    <mxCell id="node3" parent="1" vertex="1" value="&lt;p style=&quot;margin:0px;margin-top:4px;text-align:center;&quot;&gt;&lt;b&gt;datahandler/DataHandler.ts&lt;/b&gt;&lt;/p&gt;&lt;hr size=&quot;1&quot;/&gt;&lt;p style=&quot;margin:0 0 0 4px;line-height:1.6;&quot;&gt; Agent: &lt;br/&gt; DataHandler: &lt;br/&gt; DataHandlerConfig: &lt;br/&gt; Environment: &lt;br/&gt; Experiment: &lt;br/&gt; ExperimentConfig: &lt;br/&gt; IObserver: &lt;br/&gt; MatrixData: &lt;br/&gt; RowData: &lt;br/&gt; Simulation: &lt;/p&gt;" style="verticalAlign=top;align=left;overflow=fill;fontSize=14;fontFamily=Helvetica;html=1;rounded=0;shadow=0;comic=0;labelBackgroundColor=none;strokeWidth=1;">
      <mxGeometry x="-1112" y="312" width="223" height="254" as="geometry" />
    </mxCell>
    <mxCell id="node20" parent="1" vertex="1" value="&lt;p style=&quot;margin:0px;margin-top:4px;text-align:center;&quot;&gt;&lt;b&gt;environments/GenericExperiment.ts&lt;/b&gt;&lt;/p&gt;&lt;hr size=&quot;1&quot;/&gt;&lt;p style=&quot;margin:0 0 0 4px;line-height:1.6;&quot;&gt; Experiment: &lt;br/&gt; ExperimentConfig: &lt;br/&gt; FactoryDynamicClass: &lt;br/&gt; GenericExperiment: &lt;/p&gt;" style="verticalAlign=top;align=left;overflow=fill;fontSize=14;fontFamily=Helvetica;html=1;rounded=0;shadow=0;comic=0;labelBackgroundColor=none;strokeWidth=1;">
      <mxGeometry x="348" y="676" width="272" height="132" as="geometry" />
    </mxCell>
    <mxCell id="node15" parent="1" vertex="1" value="&lt;p style=&quot;margin:0px;margin-top:4px;text-align:center;&quot;&gt;&lt;b&gt;essential/Agent.ts&lt;/b&gt;&lt;/p&gt;&lt;hr size=&quot;1&quot;/&gt;&lt;p style=&quot;margin:0 0 0 4px;line-height:1.6;&quot;&gt; Action: &lt;br/&gt; Agent: &lt;br/&gt; AgentConfig: &lt;br/&gt; IDataDetailed: &lt;br/&gt; IObservable: &lt;br/&gt; Product: &lt;br/&gt; RowData: &lt;/p&gt;" style="verticalAlign=top;align=left;overflow=fill;fontSize=14;fontFamily=Helvetica;html=1;rounded=0;shadow=0;comic=0;labelBackgroundColor=none;strokeWidth=1;">
      <mxGeometry x="51" y="-25" width="155" height="188" as="geometry" />
    </mxCell>
    <mxCell id="node6" parent="1" vertex="1" value="&lt;p style=&quot;margin:0px;margin-top:4px;text-align:center;&quot;&gt;&lt;b&gt;essential/Environment.ts&lt;/b&gt;&lt;/p&gt;&lt;hr size=&quot;1&quot;/&gt;&lt;p style=&quot;margin:0 0 0 4px;line-height:1.6;&quot;&gt; Agent: &lt;br/&gt; AgentConfig: &lt;br/&gt; DataHandler: &lt;br/&gt; Environment: &lt;br/&gt; FactoryDynamicClass: &lt;br/&gt; IDataDetailed: &lt;br/&gt; IDataEssential: &lt;br/&gt; IObservable: &lt;br/&gt; RowData: &lt;/p&gt;" style="verticalAlign=top;align=left;overflow=fill;fontSize=14;fontFamily=Helvetica;html=1;rounded=0;shadow=0;comic=0;labelBackgroundColor=none;strokeWidth=1;">
      <mxGeometry x="316" y="-25" width="198" height="232" as="geometry" />
    </mxCell>
    <mxCell id="node10" parent="1" vertex="1" value="&lt;p style=&quot;margin:0px;margin-top:4px;text-align:center;&quot;&gt;&lt;b&gt;essential/Experiment.ts&lt;/b&gt;&lt;/p&gt;&lt;hr size=&quot;1&quot;/&gt;&lt;p style=&quot;margin:0 0 0 4px;line-height:1.6;&quot;&gt; DataHandler: &lt;br/&gt; Experiment: &lt;br/&gt; ExperimentConfig: &lt;br/&gt; IDataEssential: &lt;br/&gt; IObservable: &lt;br/&gt; RowData: &lt;br/&gt; Simulation: &lt;br/&gt; SimulationConfig: &lt;/p&gt;" style="verticalAlign=top;align=left;overflow=fill;fontSize=14;fontFamily=Helvetica;html=1;rounded=0;shadow=0;comic=0;labelBackgroundColor=none;strokeWidth=1;">
      <mxGeometry x="857" y="-25" width="190" height="210" as="geometry" />
    </mxCell>
    <mxCell id="node16" parent="1" vertex="1" value="&lt;p style=&quot;margin:0px;margin-top:4px;text-align:center;&quot;&gt;&lt;b&gt;essential/Simulation.ts&lt;/b&gt;&lt;/p&gt;&lt;hr size=&quot;1&quot;/&gt;&lt;p style=&quot;margin:0 0 0 4px;line-height:1.6;&quot;&gt; Environment: &lt;br/&gt; IDataDetailed: &lt;br/&gt; IDataEssential: &lt;br/&gt; RowData: &lt;br/&gt; Simulation: &lt;br/&gt; SimulationConfig: &lt;/p&gt;" style="verticalAlign=top;align=left;overflow=fill;fontSize=14;fontFamily=Helvetica;html=1;rounded=0;shadow=0;comic=0;labelBackgroundColor=none;strokeWidth=1;">
      <mxGeometry x="597" y="-25" width="186" height="166" as="geometry" />
    </mxCell>
    <mxCell id="node8" parent="1" vertex="1" value="&lt;p style=&quot;margin:0px;margin-top:4px;text-align:center;&quot;&gt;&lt;b&gt;factory/AgentTwitterFactory.ts&lt;/b&gt;&lt;/p&gt;&lt;hr size=&quot;1&quot;/&gt;&lt;p style=&quot;margin:0 0 0 4px;line-height:1.6;&quot;&gt; AgentConfig: &lt;br/&gt; Creator: &lt;br/&gt; Product: &lt;br/&gt; TwitterAgent: &lt;/p&gt;" style="verticalAlign=top;align=left;overflow=fill;fontSize=14;fontFamily=Helvetica;html=1;rounded=0;shadow=0;comic=0;labelBackgroundColor=none;strokeWidth=1;">
      <mxGeometry x="-436" y="-599" width="238" height="132" as="geometry" />
    </mxCell>
    <mxCell id="node30" parent="1" vertex="1" value="&lt;p style=&quot;margin:0px;margin-top:4px;text-align:center;&quot;&gt;&lt;b&gt;factory/ExperimentFactory.ts&lt;/b&gt;&lt;/p&gt;&lt;hr size=&quot;1&quot;/&gt;&lt;p style=&quot;margin:0 0 0 4px;line-height:1.6;&quot;&gt; Action: &lt;br/&gt; ActionConfigData: &lt;br/&gt; AgentConfig: &lt;br/&gt; AgentConfigData: &lt;br/&gt; ExperimentConfig: &lt;br/&gt; ExperimentConfigData: &lt;br/&gt; FactoryDynamicClass: &lt;br/&gt; GenericExperiment: &lt;br/&gt; SimulationConfig: &lt;/p&gt;" style="verticalAlign=top;align=left;overflow=fill;fontSize=14;fontFamily=Helvetica;html=1;rounded=0;shadow=0;comic=0;labelBackgroundColor=none;strokeWidth=1;">
      <mxGeometry x="1691" y="-606" width="227" height="232" as="geometry" />
    </mxCell>
    <mxCell id="node0" parent="1" vertex="1" value="&lt;p style=&quot;margin:0px;margin-top:4px;text-align:center;&quot;&gt;&lt;b&gt;factory/FactoryDynamicClass.ts&lt;/b&gt;&lt;/p&gt;&lt;hr size=&quot;1&quot;/&gt;&lt;p style=&quot;margin:0 0 0 4px;line-height:1.6;&quot;&gt; Action: &lt;br/&gt; ActionRead: &lt;br/&gt; ActionShare: &lt;br/&gt; Agent: &lt;br/&gt; Environment: &lt;br/&gt; EnvironmentTwitter: &lt;br/&gt; FactoryDynamicClass: &lt;br/&gt; Simulation: &lt;br/&gt; SimulationTwitter: &lt;br/&gt; TwitterAgent: &lt;/p&gt;" style="verticalAlign=top;align=left;overflow=fill;fontSize=14;fontFamily=Helvetica;html=1;rounded=0;shadow=0;comic=0;labelBackgroundColor=none;strokeWidth=1;">
      <mxGeometry x="1620" y="458" width="243" height="254" as="geometry" />
    </mxCell>
    <mxCell id="node14" parent="1" vertex="1" value="&lt;p style=&quot;margin:0px;margin-top:4px;text-align:center;&quot;&gt;&lt;b&gt;interfaces/IData.ts&lt;/b&gt;&lt;/p&gt;&lt;hr size=&quot;1&quot;/&gt;&lt;p style=&quot;margin:0 0 0 4px;line-height:1.6;&quot;&gt; RowData: &lt;/p&gt;" style="verticalAlign=top;align=left;overflow=fill;fontSize=14;fontFamily=Helvetica;html=1;rounded=0;shadow=0;comic=0;labelBackgroundColor=none;strokeWidth=1;">
      <mxGeometry x="-1461" y="838" width="158" height="60" as="geometry" />
    </mxCell>
    <mxCell id="node17" parent="1" vertex="1" value="&lt;p style=&quot;margin:0px;margin-top:4px;text-align:center;&quot;&gt;&lt;b&gt;interfaces/IDataDetailed.ts&lt;/b&gt;&lt;/p&gt;&lt;hr size=&quot;1&quot;/&gt;&lt;p style=&quot;margin:0 0 0 4px;line-height:1.6;&quot;&gt; IDataDetailed: &lt;br/&gt; RowData: &lt;/p&gt;" style="verticalAlign=top;align=left;overflow=fill;fontSize=14;fontFamily=Helvetica;html=1;rounded=0;shadow=0;comic=0;labelBackgroundColor=none;strokeWidth=1;">
      <mxGeometry x="-1590" y="1089" width="215" height="84" as="geometry" />
    </mxCell>
    <mxCell id="node29" parent="1" vertex="1" value="&lt;p style=&quot;margin:0px;margin-top:4px;text-align:center;&quot;&gt;&lt;b&gt;interfaces/IDataEssential.ts&lt;/b&gt;&lt;/p&gt;&lt;hr size=&quot;1&quot;/&gt;&lt;p style=&quot;margin:0 0 0 4px;line-height:1.6;&quot;&gt; IDataEssential: &lt;br/&gt; RowData: &lt;/p&gt;" style="verticalAlign=top;align=left;overflow=fill;fontSize=14;fontFamily=Helvetica;html=1;rounded=0;shadow=0;comic=0;labelBackgroundColor=none;strokeWidth=1;">
      <mxGeometry x="-1946" y="1089" width="215" height="84" as="geometry" />
    </mxCell>
    <mxCell id="node27" parent="1" vertex="1" value="&lt;p style=&quot;margin:0px;margin-top:4px;text-align:center;&quot;&gt;&lt;b&gt;observer/IObservable.ts&lt;/b&gt;&lt;/p&gt;&lt;hr size=&quot;1&quot;/&gt;&lt;p style=&quot;margin:0 0 0 4px;line-height:1.6;&quot;&gt; IObservable: &lt;/p&gt;" style="verticalAlign=top;align=left;overflow=fill;fontSize=14;fontFamily=Helvetica;html=1;rounded=0;shadow=0;comic=0;labelBackgroundColor=none;strokeWidth=1;">
      <mxGeometry x="-849" y="10" width="194" height="60" as="geometry" />
    </mxCell>
    <mxCell id="node11" parent="1" vertex="1" value="&lt;p style=&quot;margin:0px;margin-top:4px;text-align:center;&quot;&gt;&lt;b&gt;observer/IObserver.ts&lt;/b&gt;&lt;/p&gt;&lt;hr size=&quot;1&quot;/&gt;&lt;p style=&quot;margin:0 0 0 4px;line-height:1.6;&quot;&gt; IObserver: &lt;/p&gt;" style="verticalAlign=top;align=left;overflow=fill;fontSize=14;fontFamily=Helvetica;html=1;rounded=0;shadow=0;comic=0;labelBackgroundColor=none;strokeWidth=1;">
      <mxGeometry x="-1090" y="10" width="178" height="60" as="geometry" />
    </mxCell>
    <mxCell id="node26" parent="1" vertex="1" value="&lt;p style=&quot;margin:0px;margin-top:4px;text-align:center;&quot;&gt;&lt;b&gt;patern/Creator.ts&lt;/b&gt;&lt;/p&gt;&lt;hr size=&quot;1&quot;/&gt;&lt;p style=&quot;margin:0 0 0 4px;line-height:1.6;&quot;&gt; Creator: &lt;br/&gt; Product: &lt;/p&gt;" style="verticalAlign=top;align=left;overflow=fill;fontSize=14;fontFamily=Helvetica;html=1;rounded=0;shadow=0;comic=0;labelBackgroundColor=none;strokeWidth=1;">
      <mxGeometry x="-103" y="-323" width="150" height="84" as="geometry" />
    </mxCell>
    <mxCell id="node25" parent="1" vertex="1" value="&lt;p style=&quot;margin:0px;margin-top:4px;text-align:center;&quot;&gt;&lt;b&gt;patern/Product.ts&lt;/b&gt;&lt;/p&gt;&lt;hr size=&quot;1&quot;/&gt;&lt;p style=&quot;margin:0 0 0 4px;line-height:1.6;&quot;&gt; Product: &lt;/p&gt;" style="verticalAlign=top;align=left;overflow=fill;fontSize=14;fontFamily=Helvetica;html=1;rounded=0;shadow=0;comic=0;labelBackgroundColor=none;strokeWidth=1;">
      <mxGeometry x="127" y="-411" width="152" height="60" as="geometry" />
    </mxCell>
    <mxCell id="node24" parent="1" vertex="1" value="&lt;p style=&quot;margin:0px;margin-top:4px;text-align:center;&quot;&gt;&lt;b&gt;twitter/EnvironmentTwitter.ts&lt;/b&gt;&lt;/p&gt;&lt;hr size=&quot;1&quot;/&gt;&lt;p style=&quot;margin:0 0 0 4px;line-height:1.6;&quot;&gt; Agent: &lt;br/&gt; AgentConfig: &lt;br/&gt; Environment: &lt;br/&gt; EnvironmentTwitter: &lt;br/&gt; RowData: &lt;/p&gt;" style="verticalAlign=top;align=left;overflow=fill;fontSize=14;fontFamily=Helvetica;html=1;rounded=0;shadow=0;comic=0;labelBackgroundColor=none;strokeWidth=1;">
      <mxGeometry x="-997" y="1389" width="230" height="144" as="geometry" />
    </mxCell>
    <mxCell id="node23" parent="1" vertex="1" value="&lt;p style=&quot;margin:0px;margin-top:4px;text-align:center;&quot;&gt;&lt;b&gt;twitter/SimulationTwitter.ts&lt;/b&gt;&lt;/p&gt;&lt;hr size=&quot;1&quot;/&gt;&lt;p style=&quot;margin:0 0 0 4px;line-height:1.6;&quot;&gt; EnvironmentTwitter: &lt;br/&gt; Simulation: &lt;br/&gt; SimulationConfig: &lt;br/&gt; SimulationTwitter: &lt;/p&gt;" style="verticalAlign=top;align=left;overflow=fill;fontSize=14;fontFamily=Helvetica;html=1;rounded=0;shadow=0;comic=0;labelBackgroundColor=none;strokeWidth=1;">
      <mxGeometry x="-997" y="1630" width="218" height="132" as="geometry" />
    </mxCell>
    <mxCell id="node5" parent="1" vertex="1" value="&lt;p style=&quot;margin:0px;margin-top:4px;text-align:center;&quot;&gt;&lt;b&gt;twitter/TwitterAgent.ts&lt;/b&gt;&lt;/p&gt;&lt;hr size=&quot;1&quot;/&gt;&lt;p style=&quot;margin:0 0 0 4px;line-height:1.6;&quot;&gt; Agent: &lt;br/&gt; AgentConfig: &lt;br/&gt; RowData: &lt;br/&gt; TwitterAgent: &lt;/p&gt;" style="verticalAlign=top;align=left;overflow=fill;fontSize=14;fontFamily=Helvetica;html=1;rounded=0;shadow=0;comic=0;labelBackgroundColor=none;strokeWidth=1;">
      <mxGeometry x="-976" y="1195" width="187" height="132" as="geometry" />
    </mxCell>
    <mxCell id="edge32" edge="1" value="" parent="1" source="node9" target="node15" style="html=1;rounded=1;;dashed=0;startArrow=classic;startSize=12;endArrow=none;strokeColor=#595959;exitX=0.484;exitY=0.000;exitDx=0;exitDy=0;entryX=0.645;entryY=1.000;entryDx=0;entryDy=0;">
      <mxGeometry width="50" height="50" relative="1" as="geometry">
        <Array as="points" />
      </mxGeometry>
    </mxCell>
    <mxCell id="edge66" edge="1" value="" parent="1" source="node1" target="node9" style="html=1;rounded=1;;dashed=0;startArrow=classic;startSize=12;endArrow=none;strokeColor=#595959;exitX=1.000;exitY=0.793;exitDx=0;exitDy=0;entryX=0.000;entryY=0.297;entryDx=0;entryDy=0;">
      <mxGeometry width="50" height="50" relative="1" as="geometry">
        <Array as="points" />
      </mxGeometry>
    </mxCell>
    <mxCell id="edge2" edge="1" value="" parent="1" source="node1" target="node15" style="html=1;rounded=1;;dashed=0;startArrow=classic;startSize=12;endArrow=none;strokeColor=#595959;exitX=0.534;exitY=0.000;exitDx=0;exitDy=0;entryX=0.385;entryY=1.000;entryDx=0;entryDy=0;">
      <mxGeometry width="50" height="50" relative="1" as="geometry">
        <Array as="points" />
      </mxGeometry>
    </mxCell>
    <mxCell id="edge16" edge="1" value="" parent="1" source="node28" target="node9" style="html=1;rounded=1;;dashed=0;startArrow=classic;startSize=12;endArrow=none;strokeColor=#595959;exitX=0.825;exitY=1.000;exitDx=0;exitDy=0;entryX=0.144;entryY=0.000;entryDx=0;entryDy=0;">
      <mxGeometry width="50" height="50" relative="1" as="geometry">
        <Array as="points" />
      </mxGeometry>
    </mxCell>
    <mxCell id="edge5" edge="1" value="" parent="1" source="node28" target="node15" style="html=1;rounded=1;;dashed=0;startArrow=classic;startSize=12;endArrow=none;strokeColor=#595959;exitX=0.557;exitY=0.000;exitDx=0;exitDy=0;entryX=0.356;entryY=1.000;entryDx=0;entryDy=0;">
      <mxGeometry width="50" height="50" relative="1" as="geometry">
        <Array as="points" />
      </mxGeometry>
    </mxCell>
    <mxCell id="edge87" edge="1" value="" parent="1" source="node7" target="node9" style="html=1;rounded=1;;dashed=0;startArrow=classic;startSize=12;endArrow=none;strokeColor=#595959;exitX=1.000;exitY=0.092;exitDx=0;exitDy=0;entryX=0.000;entryY=0.866;entryDx=0;entryDy=0;">
      <mxGeometry width="50" height="50" relative="1" as="geometry">
        <Array as="points" />
      </mxGeometry>
    </mxCell>
    <mxCell id="edge54" edge="1" value="" parent="1" source="node7" target="node15" style="html=1;rounded=1;;dashed=0;startArrow=classic;startSize=12;endArrow=none;strokeColor=#595959;exitX=0.536;exitY=0.000;exitDx=0;exitDy=0;entryX=0.407;entryY=1.000;entryDx=0;entryDy=0;">
      <mxGeometry width="50" height="50" relative="1" as="geometry">
        <Array as="points" />
      </mxGeometry>
    </mxCell>
    <mxCell id="edge83" edge="1" value="" parent="1" source="node2" target="node9" style="html=1;rounded=1;;dashed=0;startArrow=classic;startSize=12;endArrow=none;strokeColor=#595959;exitX=0.558;exitY=0.000;exitDx=0;exitDy=0;entryX=0.427;entryY=1.000;entryDx=0;entryDy=0;">
      <mxGeometry width="50" height="50" relative="1" as="geometry">
        <Array as="points" />
      </mxGeometry>
    </mxCell>
    <mxCell id="edge31" edge="1" value="" parent="1" source="node19" target="node13" style="html=1;rounded=1;;dashed=0;startArrow=classic;startSize=12;endArrow=none;strokeColor=#595959;exitX=0.000;exitY=0.500;exitDx=0;exitDy=0;entryX=1.000;entryY=0.500;entryDx=0;entryDy=0;">
      <mxGeometry width="50" height="50" relative="1" as="geometry">
        <Array as="points" />
      </mxGeometry>
    </mxCell>
    <mxCell id="edge36" edge="1" value="" parent="1" source="node19" target="node31" style="html=1;rounded=1;;dashed=0;startArrow=classic;startSize=12;endArrow=none;strokeColor=#595959;exitX=0.910;exitY=1.000;exitDx=0;exitDy=0;entryX=0.174;entryY=0.000;entryDx=0;entryDy=0;">
      <mxGeometry width="50" height="50" relative="1" as="geometry">
        <Array as="points" />
      </mxGeometry>
    </mxCell>
    <mxCell id="edge46" edge="1" value="" parent="1" source="node31" target="node2" style="html=1;rounded=1;;dashed=0;startArrow=classic;startSize=12;endArrow=none;strokeColor=#595959;exitX=0.436;exitY=0.000;exitDx=0;exitDy=0;entryX=0.575;entryY=0.999;entryDx=0;entryDy=0;">
      <mxGeometry width="50" height="50" relative="1" as="geometry">
        <Array as="points" />
      </mxGeometry>
    </mxCell>
    <mxCell id="edge68" edge="1" value="" parent="1" source="node22" target="node21" style="html=1;rounded=1;;dashed=0;startArrow=classic;startSize=12;endArrow=none;strokeColor=#595959;exitX=0.580;exitY=1.000;exitDx=0;exitDy=0;entryX=0.444;entryY=0.000;entryDx=0;entryDy=0;">
      <mxGeometry width="50" height="50" relative="1" as="geometry">
        <Array as="points" />
      </mxGeometry>
    </mxCell>
    <mxCell id="edge26" edge="1" value="" parent="1" source="node4" target="node22" style="html=1;rounded=1;;dashed=0;startArrow=classic;startSize=12;endArrow=none;strokeColor=#595959;exitX=0.472;exitY=0.000;exitDx=0;exitDy=0;entryX=0.533;entryY=1.000;entryDx=0;entryDy=0;">
      <mxGeometry width="50" height="50" relative="1" as="geometry">
        <Array as="points" />
      </mxGeometry>
    </mxCell>
    <mxCell id="edge69" edge="1" value="" parent="1" source="node18" target="node12" style="html=1;rounded=1;;dashed=0;startArrow=classic;startSize=12;endArrow=none;strokeColor=#595959;exitX=0.492;exitY=1.001;exitDx=0;exitDy=0;entryX=0.506;entryY=0.001;entryDx=0;entryDy=0;">
      <mxGeometry width="50" height="50" relative="1" as="geometry">
        <Array as="points" />
      </mxGeometry>
    </mxCell>
    <mxCell id="edge55" edge="1" value="" parent="1" source="node3" target="node13" style="html=1;rounded=1;;dashed=0;startArrow=classic;startSize=12;endArrow=none;strokeColor=#595959;exitX=0.715;exitY=1.000;exitDx=0;exitDy=0;entryX=0.454;entryY=0.000;entryDx=0;entryDy=0;">
      <mxGeometry width="50" height="50" relative="1" as="geometry">
        <Array as="points" />
      </mxGeometry>
    </mxCell>
    <mxCell id="edge56" edge="1" value="" parent="1" source="node3" target="node19" style="html=1;rounded=1;;dashed=0;startArrow=classic;startSize=12;endArrow=none;strokeColor=#595959;exitX=0.858;exitY=1.000;exitDx=0;exitDy=0;entryX=0.357;entryY=0.000;entryDx=0;entryDy=0;">
      <mxGeometry width="50" height="50" relative="1" as="geometry">
        <Array as="points" />
      </mxGeometry>
    </mxCell>
    <mxCell id="edge59" edge="1" value="" parent="1" source="node3" target="node18" style="html=1;rounded=1;;dashed=0;startArrow=classic;startSize=12;endArrow=none;strokeColor=#595959;exitX=0.000;exitY=0.500;exitDx=0;exitDy=0;entryX=1.000;entryY=0.500;entryDx=0;entryDy=0;">
      <mxGeometry width="50" height="50" relative="1" as="geometry">
        <Array as="points" />
      </mxGeometry>
    </mxCell>
    <mxCell id="edge49" edge="1" value="" parent="1" source="node3" target="node12" style="html=1;rounded=1;;dashed=0;startArrow=classic;startSize=12;endArrow=none;strokeColor=#595959;exitX=0.000;exitY=0.731;exitDx=0;exitDy=0;entryX=0.858;entryY=0.000;entryDx=0;entryDy=0;">
      <mxGeometry width="50" height="50" relative="1" as="geometry">
        <Array as="points" />
      </mxGeometry>
    </mxCell>
    <mxCell id="edge72" edge="1" value="" parent="1" source="node3" target="node15" style="html=1;rounded=1;;dashed=0;startArrow=classic;startSize=12;endArrow=none;strokeColor=#595959;exitX=1.000;exitY=0.356;exitDx=0;exitDy=0;entryX=0.000;entryY=0.635;entryDx=0;entryDy=0;">
      <mxGeometry width="50" height="50" relative="1" as="geometry">
        <Array as="points" />
      </mxGeometry>
    </mxCell>
    <mxCell id="edge57" edge="1" value="" parent="1" source="node3" target="node6" style="html=1;rounded=1;;dashed=0;startArrow=classic;startSize=12;endArrow=none;strokeColor=#595959;exitX=1.000;exitY=0.407;exitDx=0;exitDy=0;entryX=0.000;entryY=0.621;entryDx=0;entryDy=0;">
      <mxGeometry width="50" height="50" relative="1" as="geometry">
        <Array as="points" />
      </mxGeometry>
    </mxCell>
    <mxCell id="edge18" edge="1" value="" parent="1" source="node3" target="node10" style="html=1;rounded=1;;dashed=0;startArrow=classic;startSize=12;endArrow=none;strokeColor=#595959;exitX=1.000;exitY=0.418;exitDx=0;exitDy=0;entryX=0.000;entryY=0.582;entryDx=0;entryDy=0;">
      <mxGeometry width="50" height="50" relative="1" as="geometry">
        <Array as="points" />
      </mxGeometry>
    </mxCell>
    <mxCell id="edge9" edge="1" value="" parent="1" source="node3" target="node16" style="html=1;rounded=1;;dashed=0;startArrow=classic;startSize=12;endArrow=none;strokeColor=#595959;exitX=1.000;exitY=0.401;exitDx=0;exitDy=0;entryX=0.000;entryY=0.626;entryDx=0;entryDy=0;">
      <mxGeometry width="50" height="50" relative="1" as="geometry">
        <Array as="points" />
      </mxGeometry>
    </mxCell>
    <mxCell id="edge44" edge="1" value="" parent="1" source="node3" target="node11" style="html=1;rounded=1;;dashed=0;startArrow=classic;startSize=12;endArrow=none;strokeColor=#595959;exitX=0.500;exitY=0.000;exitDx=0;exitDy=0;entryX=0.500;entryY=1.000;entryDx=0;entryDy=0;">
      <mxGeometry width="50" height="50" relative="1" as="geometry">
        <Array as="points" />
      </mxGeometry>
    </mxCell>
    <mxCell id="edge8" edge="1" value="" parent="1" source="node20" target="node19" style="html=1;rounded=1;;dashed=0;startArrow=classic;startSize=12;endArrow=none;strokeColor=#595959;exitX=0.444;exitY=1.000;exitDx=0;exitDy=0;entryX=0.557;entryY=0.000;entryDx=0;entryDy=0;">
      <mxGeometry width="50" height="50" relative="1" as="geometry">
        <Array as="points" />
      </mxGeometry>
    </mxCell>
    <mxCell id="edge60" edge="1" value="" parent="1" source="node20" target="node10" style="html=1;rounded=1;;dashed=0;startArrow=classic;startSize=12;endArrow=none;strokeColor=#595959;exitX=0.660;exitY=0.000;exitDx=0;exitDy=0;entryX=0.107;entryY=1.000;entryDx=0;entryDy=0;">
      <mxGeometry width="50" height="50" relative="1" as="geometry">
        <Array as="points" />
      </mxGeometry>
    </mxCell>
    <mxCell id="edge65" edge="1" value="" parent="1" source="node20" target="node0" style="html=1;rounded=1;;dashed=0;startArrow=classic;startSize=12;endArrow=none;strokeColor=#595959;exitX=1.000;exitY=0.365;exitDx=0;exitDy=0;entryX=0.000;entryY=0.558;entryDx=0;entryDy=0;">
      <mxGeometry width="50" height="50" relative="1" as="geometry">
        <Array as="points" />
      </mxGeometry>
    </mxCell>
    <mxCell id="edge71" edge="1" value="" parent="1" source="node15" target="node9" style="html=1;rounded=1;;dashed=0;startArrow=classic;startSize=12;endArrow=none;strokeColor=#595959;exitX=0.581;exitY=1.000;exitDx=0;exitDy=0;entryX=0.417;entryY=0.000;entryDx=0;entryDy=0;">
      <mxGeometry width="50" height="50" relative="1" as="geometry">
        <Array as="points" />
      </mxGeometry>
    </mxCell>
    <mxCell id="edge84" edge="1" value="" parent="1" source="node15" target="node2" style="html=1;rounded=1;;dashed=0;startArrow=classic;startSize=12;endArrow=none;strokeColor=#595959;exitX=0.500;exitY=1.000;exitDx=0;exitDy=0;entryX=0.500;entryY=0.000;entryDx=0;entryDy=0;">
      <mxGeometry width="50" height="50" relative="1" as="geometry">
        <Array as="points" />
      </mxGeometry>
    </mxCell>
    <mxCell id="edge33" edge="1" value="" parent="1" source="node15" target="node12" style="html=1;rounded=1;;dashed=0;startArrow=classic;startSize=12;endArrow=none;strokeColor=#595959;exitX=0.000;exitY=0.656;exitDx=0;exitDy=0;entryX=0.997;entryY=0.000;entryDx=0;entryDy=0;">
      <mxGeometry width="50" height="50" relative="1" as="geometry">
        <Array as="points" />
      </mxGeometry>
    </mxCell>
    <mxCell id="edge82" edge="1" value="" parent="1" source="node15" target="node17" style="html=1;rounded=1;;dashed=0;startArrow=classic;startSize=12;endArrow=none;strokeColor=#595959;exitX=0.000;exitY=0.771;exitDx=0;exitDy=0;entryX=0.776;entryY=0.000;entryDx=0;entryDy=0;">
      <mxGeometry width="50" height="50" relative="1" as="geometry">
        <Array as="points" />
      </mxGeometry>
    </mxCell>
    <mxCell id="edge76" edge="1" value="" parent="1" source="node15" target="node27" style="html=1;rounded=1;;dashed=0;startArrow=classic;startSize=12;endArrow=none;strokeColor=#595959;exitX=0.000;exitY=0.486;exitDx=0;exitDy=0;entryX=1.000;entryY=0.560;entryDx=0;entryDy=0;">
      <mxGeometry width="50" height="50" relative="1" as="geometry">
        <Array as="points" />
      </mxGeometry>
    </mxCell>
    <mxCell id="edge14" edge="1" value="" parent="1" source="node15" target="node25" style="html=1;rounded=1;;dashed=0;startArrow=classic;startSize=12;endArrow=none;strokeColor=#595959;exitX=0.601;exitY=0.000;exitDx=0;exitDy=0;entryX=0.469;entryY=0.999;entryDx=0;entryDy=0;">
      <mxGeometry width="50" height="50" relative="1" as="geometry">
        <Array as="points" />
      </mxGeometry>
    </mxCell>
    <mxCell id="edge63" edge="1" value="" parent="1" source="node6" target="node2" style="html=1;rounded=1;;dashed=0;startArrow=classic;startSize=12;endArrow=none;strokeColor=#595959;exitX=0.328;exitY=1.000;exitDx=0;exitDy=0;entryX=0.562;entryY=0.000;entryDx=0;entryDy=0;">
      <mxGeometry width="50" height="50" relative="1" as="geometry">
        <Array as="points" />
      </mxGeometry>
    </mxCell>
    <mxCell id="edge15" edge="1" value="" parent="1" source="node6" target="node12" style="html=1;rounded=1;;dashed=0;startArrow=classic;startSize=12;endArrow=none;strokeColor=#595959;exitX=0.000;exitY=0.630;exitDx=0;exitDy=0;entryX=1.000;entryY=0.094;entryDx=0;entryDy=0;">
      <mxGeometry width="50" height="50" relative="1" as="geometry">
        <Array as="points" />
      </mxGeometry>
    </mxCell>
    <mxCell id="edge28" edge="1" value="" parent="1" source="node6" target="node3" style="html=1;rounded=1;;dashed=0;startArrow=classic;startSize=12;endArrow=none;strokeColor=#595959;exitX=0.000;exitY=0.580;exitDx=0;exitDy=0;entryX=1.000;entryY=0.369;entryDx=0;entryDy=0;">
      <mxGeometry width="50" height="50" relative="1" as="geometry">
        <Array as="points" />
      </mxGeometry>
    </mxCell>
    <mxCell id="edge4" edge="1" value="" parent="1" source="node6" target="node15" style="html=1;rounded=1;;dashed=0;startArrow=classic;startSize=12;endArrow=none;strokeColor=#595959;exitX=0.000;exitY=0.467;exitDx=0;exitDy=0;entryX=1.000;entryY=0.532;entryDx=0;entryDy=0;">
      <mxGeometry width="50" height="50" relative="1" as="geometry">
        <Array as="points" />
      </mxGeometry>
    </mxCell>
    <mxCell id="edge70" edge="1" value="" parent="1" source="node6" target="node0" style="html=1;rounded=1;;dashed=0;startArrow=classic;startSize=12;endArrow=none;strokeColor=#595959;exitX=1.000;exitY=0.667;exitDx=0;exitDy=0;entryX=0.000;entryY=0.330;entryDx=0;entryDy=0;">
      <mxGeometry width="50" height="50" relative="1" as="geometry">
        <Array as="points" />
      </mxGeometry>
    </mxCell>
    <mxCell id="edge62" edge="1" value="" parent="1" source="node6" target="node17" style="html=1;rounded=1;;dashed=0;startArrow=classic;startSize=12;endArrow=none;strokeColor=#595959;exitX=0.000;exitY=0.733;exitDx=0;exitDy=0;entryX=0.832;entryY=0.000;entryDx=0;entryDy=0;">
      <mxGeometry width="50" height="50" relative="1" as="geometry">
        <Array as="points" />
      </mxGeometry>
    </mxCell>
    <mxCell id="edge7" edge="1" value="" parent="1" source="node6" target="node29" style="html=1;rounded=1;;dashed=0;startArrow=classic;startSize=12;endArrow=none;strokeColor=#595959;exitX=0.000;exitY=0.696;exitDx=0;exitDy=0;entryX=0.894;entryY=0.000;entryDx=0;entryDy=0;">
      <mxGeometry width="50" height="50" relative="1" as="geometry">
        <Array as="points" />
      </mxGeometry>
    </mxCell>
    <mxCell id="edge30" edge="1" value="" parent="1" source="node6" target="node27" style="html=1;rounded=1;;dashed=0;startArrow=classic;startSize=12;endArrow=none;strokeColor=#595959;exitX=0.000;exitY=0.481;exitDx=0;exitDy=0;entryX=1.000;entryY=0.578;entryDx=0;entryDy=0;">
      <mxGeometry width="50" height="50" relative="1" as="geometry">
        <Array as="points" />
      </mxGeometry>
    </mxCell>
    <mxCell id="edge25" edge="1" value="" parent="1" source="node10" target="node19" style="html=1;rounded=1;;dashed=0;startArrow=classic;startSize=12;endArrow=none;strokeColor=#595959;exitX=0.283;exitY=1.000;exitDx=0;exitDy=0;entryX=0.590;entryY=0.000;entryDx=0;entryDy=0;">
      <mxGeometry width="50" height="50" relative="1" as="geometry">
        <Array as="points" />
      </mxGeometry>
    </mxCell>
    <mxCell id="edge1" edge="1" value="" parent="1" source="node10" target="node31" style="html=1;rounded=1;;dashed=0;startArrow=classic;startSize=12;endArrow=none;strokeColor=#595959;exitX=0.428;exitY=1.000;exitDx=0;exitDy=0;entryX=0.524;entryY=0.000;entryDx=0;entryDy=0;">
      <mxGeometry width="50" height="50" relative="1" as="geometry">
        <Array as="points" />
      </mxGeometry>
    </mxCell>
    <mxCell id="edge11" edge="1" value="" parent="1" source="node10" target="node12" style="html=1;rounded=1;;dashed=0;startArrow=classic;startSize=12;endArrow=none;strokeColor=#595959;exitX=0.000;exitY=0.608;exitDx=0;exitDy=0;entryX=1.000;entryY=0.181;entryDx=0;entryDy=0;">
      <mxGeometry width="50" height="50" relative="1" as="geometry">
        <Array as="points" />
      </mxGeometry>
    </mxCell>
    <mxCell id="edge48" edge="1" value="" parent="1" source="node10" target="node3" style="html=1;rounded=1;;dashed=0;startArrow=classic;startSize=12;endArrow=none;strokeColor=#595959;exitX=0.000;exitY=0.588;exitDx=0;exitDy=0;entryX=1.000;entryY=0.423;entryDx=0;entryDy=0;">
      <mxGeometry width="50" height="50" relative="1" as="geometry">
        <Array as="points" />
      </mxGeometry>
    </mxCell>
    <mxCell id="edge51" edge="1" value="" parent="1" source="node10" target="node16" style="html=1;rounded=1;;dashed=0;startArrow=classic;startSize=12;endArrow=none;strokeColor=#595959;exitX=0.000;exitY=0.462;exitDx=0;exitDy=0;entryX=1.000;entryY=0.547;entryDx=0;entryDy=0;">
      <mxGeometry width="50" height="50" relative="1" as="geometry">
        <Array as="points" />
      </mxGeometry>
    </mxCell>
    <mxCell id="edge61" edge="1" value="" parent="1" source="node10" target="node29" style="html=1;rounded=1;;dashed=0;startArrow=classic;startSize=12;endArrow=none;strokeColor=#595959;exitX=0.000;exitY=0.670;exitDx=0;exitDy=0;entryX=0.983;entryY=0.000;entryDx=0;entryDy=0;">
      <mxGeometry width="50" height="50" relative="1" as="geometry">
        <Array as="points" />
      </mxGeometry>
    </mxCell>
    <mxCell id="edge50" edge="1" value="" parent="1" source="node10" target="node27" style="html=1;rounded=1;;dashed=0;startArrow=classic;startSize=12;endArrow=none;strokeColor=#595959;exitX=0.000;exitY=0.489;exitDx=0;exitDy=0;entryX=1.000;entryY=0.542;entryDx=0;entryDy=0;">
      <mxGeometry width="50" height="50" relative="1" as="geometry">
        <Array as="points" />
      </mxGeometry>
    </mxCell>
    <mxCell id="edge0" edge="1" value="" parent="1" source="node16" target="node31" style="html=1;rounded=1;;dashed=0;startArrow=classic;startSize=12;endArrow=none;strokeColor=#595959;exitX=0.490;exitY=1.000;exitDx=0;exitDy=0;entryX=0.504;entryY=0.000;entryDx=0;entryDy=0;">
      <mxGeometry width="50" height="50" relative="1" as="geometry">
        <Array as="points" />
      </mxGeometry>
    </mxCell>
    <mxCell id="edge6" edge="1" value="" parent="1" source="node16" target="node12" style="html=1;rounded=1;;dashed=0;startArrow=classic;startSize=12;endArrow=none;strokeColor=#595959;exitX=0.000;exitY=0.657;exitDx=0;exitDy=0;entryX=1.000;entryY=0.127;entryDx=0;entryDy=0;">
      <mxGeometry width="50" height="50" relative="1" as="geometry">
        <Array as="points" />
      </mxGeometry>
    </mxCell>
    <mxCell id="edge22" edge="1" value="" parent="1" source="node16" target="node6" style="html=1;rounded=1;;dashed=0;startArrow=classic;startSize=12;endArrow=none;strokeColor=#595959;exitX=0.000;exitY=0.567;exitDx=0;exitDy=0;entryX=1.000;entryY=0.449;entryDx=0;entryDy=0;">
      <mxGeometry width="50" height="50" relative="1" as="geometry">
        <Array as="points" />
      </mxGeometry>
    </mxCell>
    <mxCell id="edge3" edge="1" value="" parent="1" source="node16" target="node17" style="html=1;rounded=1;;dashed=0;startArrow=classic;startSize=12;endArrow=none;strokeColor=#595959;exitX=0.000;exitY=0.776;exitDx=0;exitDy=0;entryX=0.868;entryY=0.000;entryDx=0;entryDy=0;">
      <mxGeometry width="50" height="50" relative="1" as="geometry">
        <Array as="points" />
      </mxGeometry>
    </mxCell>
    <mxCell id="edge80" edge="1" value="" parent="1" source="node16" target="node29" style="html=1;rounded=1;;dashed=0;startArrow=classic;startSize=12;endArrow=none;strokeColor=#595959;exitX=0.000;exitY=0.737;exitDx=0;exitDy=0;entryX=0.929;entryY=0.000;entryDx=0;entryDy=0;">
      <mxGeometry width="50" height="50" relative="1" as="geometry">
        <Array as="points" />
      </mxGeometry>
    </mxCell>
    <mxCell id="edge73" edge="1" value="" parent="1" source="node8" target="node2" style="html=1;rounded=1;;dashed=0;startArrow=classic;startSize=12;endArrow=none;strokeColor=#595959;exitX=0.571;exitY=1.000;exitDx=0;exitDy=0;entryX=0.441;entryY=0.000;entryDx=0;entryDy=0;">
      <mxGeometry width="50" height="50" relative="1" as="geometry">
        <Array as="points" />
      </mxGeometry>
    </mxCell>
    <mxCell id="edge27" edge="1" value="" parent="1" source="node8" target="node26" style="html=1;rounded=1;;dashed=0;startArrow=classic;startSize=12;endArrow=none;strokeColor=#595959;exitX=0.791;exitY=1.000;exitDx=0;exitDy=0;entryX=0.205;entryY=0.000;entryDx=0;entryDy=0;">
      <mxGeometry width="50" height="50" relative="1" as="geometry">
        <Array as="points" />
      </mxGeometry>
    </mxCell>
    <mxCell id="edge74" edge="1" value="" parent="1" source="node8" target="node25" style="html=1;rounded=1;;dashed=0;startArrow=classic;startSize=12;endArrow=none;strokeColor=#595959;exitX=1.000;exitY=0.792;exitDx=0;exitDy=0;entryX=0.000;entryY=0.094;entryDx=0;entryDy=0;">
      <mxGeometry width="50" height="50" relative="1" as="geometry">
        <Array as="points" />
      </mxGeometry>
    </mxCell>
    <mxCell id="edge47" edge="1" value="" parent="1" source="node8" target="node5" style="html=1;rounded=1;;dashed=0;startArrow=classic;startSize=12;endArrow=none;strokeColor=#595959;exitX=0.419;exitY=1.000;exitDx=0;exitDy=0;entryX=0.603;entryY=0.000;entryDx=0;entryDy=0;">
      <mxGeometry width="50" height="50" relative="1" as="geometry">
        <Array as="points" />
      </mxGeometry>
    </mxCell>
    <mxCell id="edge20" edge="1" value="" parent="1" source="node30" target="node9" style="html=1;rounded=1;;dashed=0;startArrow=classic;startSize=12;endArrow=none;strokeColor=#595959;exitX=0.000;exitY=0.861;exitDx=0;exitDy=0;entryX=0.857;entryY=0.000;entryDx=0;entryDy=0;">
      <mxGeometry width="50" height="50" relative="1" as="geometry">
        <Array as="points" />
      </mxGeometry>
    </mxCell>
    <mxCell id="edge45" edge="1" value="" parent="1" source="node30" target="node2" style="html=1;rounded=1;;dashed=0;startArrow=classic;startSize=12;endArrow=none;strokeColor=#595959;exitX=0.000;exitY=0.955;exitDx=0;exitDy=0;entryX=0.728;entryY=0.000;entryDx=0;entryDy=0;">
      <mxGeometry width="50" height="50" relative="1" as="geometry">
        <Array as="points" />
      </mxGeometry>
    </mxCell>
    <mxCell id="edge37" edge="1" value="" parent="1" source="node30" target="node19" style="html=1;rounded=1;;dashed=0;startArrow=classic;startSize=12;endArrow=none;strokeColor=#595959;exitX=0.180;exitY=1.000;exitDx=0;exitDy=0;entryX=0.643;entryY=0.000;entryDx=0;entryDy=0;">
      <mxGeometry width="50" height="50" relative="1" as="geometry">
        <Array as="points" />
      </mxGeometry>
    </mxCell>
    <mxCell id="edge78" edge="1" value="" parent="1" source="node30" target="node31" style="html=1;rounded=1;;dashed=0;startArrow=classic;startSize=12;endArrow=none;strokeColor=#595959;exitX=0.300;exitY=1.000;exitDx=0;exitDy=0;entryX=0.571;entryY=0.000;entryDx=0;entryDy=0;">
      <mxGeometry width="50" height="50" relative="1" as="geometry">
        <Array as="points" />
      </mxGeometry>
    </mxCell>
    <mxCell id="edge34" edge="1" value="" parent="1" source="node30" target="node21" style="html=1;rounded=1;;dashed=0;startArrow=classic;startSize=12;endArrow=none;strokeColor=#595959;exitX=0.334;exitY=1.000;exitDx=0;exitDy=0;entryX=0.544;entryY=0.000;entryDx=0;entryDy=0;">
      <mxGeometry width="50" height="50" relative="1" as="geometry">
        <Array as="points" />
      </mxGeometry>
    </mxCell>
    <mxCell id="edge10" edge="1" value="" parent="1" source="node30" target="node22" style="html=1;rounded=1;;dashed=0;startArrow=classic;startSize=12;endArrow=none;strokeColor=#595959;exitX=0.151;exitY=1.000;exitDx=0;exitDy=0;entryX=0.631;entryY=0.000;entryDx=0;entryDy=0;">
      <mxGeometry width="50" height="50" relative="1" as="geometry">
        <Array as="points" />
      </mxGeometry>
    </mxCell>
    <mxCell id="edge85" edge="1" value="" parent="1" source="node30" target="node4" style="html=1;rounded=1;;dashed=0;startArrow=classic;startSize=12;endArrow=none;strokeColor=#595959;exitX=0.233;exitY=1.000;exitDx=0;exitDy=0;entryX=0.585;entryY=0.000;entryDx=0;entryDy=0;">
      <mxGeometry width="50" height="50" relative="1" as="geometry">
        <Array as="points" />
      </mxGeometry>
    </mxCell>
    <mxCell id="edge67" edge="1" value="" parent="1" source="node30" target="node20" style="html=1;rounded=1;;dashed=0;startArrow=classic;startSize=12;endArrow=none;strokeColor=#595959;exitX=0.000;exitY=0.954;exitDx=0;exitDy=0;entryX=0.741;entryY=0.000;entryDx=0;entryDy=0;">
      <mxGeometry width="50" height="50" relative="1" as="geometry">
        <Array as="points" />
      </mxGeometry>
    </mxCell>
    <mxCell id="edge77" edge="1" value="" parent="1" source="node30" target="node0" style="html=1;rounded=1;;dashed=0;startArrow=classic;startSize=12;endArrow=none;strokeColor=#595959;exitX=0.470;exitY=1.000;exitDx=0;exitDy=0;entryX=0.530;entryY=0.000;entryDx=0;entryDy=0;">
      <mxGeometry width="50" height="50" relative="1" as="geometry">
        <Array as="points" />
      </mxGeometry>
    </mxCell>
    <mxCell id="edge40" edge="1" value="" parent="1" source="node0" target="node9" style="html=1;rounded=1;;dashed=0;startArrow=classic;startSize=12;endArrow=none;strokeColor=#595959;exitX=0.000;exitY=0.525;exitDx=0;exitDy=0;entryX=1.000;entryY=0.450;entryDx=0;entryDy=0;">
      <mxGeometry width="50" height="50" relative="1" as="geometry">
        <Array as="points" />
      </mxGeometry>
    </mxCell>
    <mxCell id="edge86" edge="1" value="" parent="1" source="node0" target="node28" style="html=1;rounded=1;;dashed=0;startArrow=classic;startSize=12;endArrow=none;strokeColor=#595959;exitX=0.000;exitY=0.478;exitDx=0;exitDy=0;entryX=1.000;entryY=0.548;entryDx=0;entryDy=0;">
      <mxGeometry width="50" height="50" relative="1" as="geometry">
        <Array as="points" />
      </mxGeometry>
    </mxCell>
    <mxCell id="edge75" edge="1" value="" parent="1" source="node0" target="node7" style="html=1;rounded=1;;dashed=0;startArrow=classic;startSize=12;endArrow=none;strokeColor=#595959;exitX=0.000;exitY=0.545;exitDx=0;exitDy=0;entryX=1.000;entryY=0.400;entryDx=0;entryDy=0;">
      <mxGeometry width="50" height="50" relative="1" as="geometry">
        <Array as="points" />
      </mxGeometry>
    </mxCell>
    <mxCell id="edge64" edge="1" value="" parent="1" source="node0" target="node15" style="html=1;rounded=1;;dashed=0;startArrow=classic;startSize=12;endArrow=none;strokeColor=#595959;exitX=0.000;exitY=0.347;exitDx=0;exitDy=0;entryX=1.000;entryY=0.632;entryDx=0;entryDy=0;">
      <mxGeometry width="50" height="50" relative="1" as="geometry">
        <Array as="points" />
      </mxGeometry>
    </mxCell>
    <mxCell id="edge21" edge="1" value="" parent="1" source="node0" target="node6" style="html=1;rounded=1;;dashed=0;startArrow=classic;startSize=12;endArrow=none;strokeColor=#595959;exitX=0.000;exitY=0.321;exitDx=0;exitDy=0;entryX=1.000;entryY=0.658;entryDx=0;entryDy=0;">
      <mxGeometry width="50" height="50" relative="1" as="geometry">
        <Array as="points" />
      </mxGeometry>
    </mxCell>
    <mxCell id="edge58" edge="1" value="" parent="1" source="node0" target="node16" style="html=1;rounded=1;;dashed=0;startArrow=classic;startSize=12;endArrow=none;strokeColor=#595959;exitX=0.000;exitY=0.260;exitDx=0;exitDy=0;entryX=1.000;entryY=0.781;entryDx=0;entryDy=0;">
      <mxGeometry width="50" height="50" relative="1" as="geometry">
        <Array as="points" />
      </mxGeometry>
    </mxCell>
    <mxCell id="edge81" edge="1" value="" parent="1" source="node0" target="node24" style="html=1;rounded=1;;dashed=0;startArrow=classic;startSize=12;endArrow=none;strokeColor=#595959;exitX=0.000;exitY=0.660;exitDx=0;exitDy=0;entryX=1.000;entryY=0.233;entryDx=0;entryDy=0;">
      <mxGeometry width="50" height="50" relative="1" as="geometry">
        <Array as="points" />
      </mxGeometry>
    </mxCell>
    <mxCell id="edge53" edge="1" value="" parent="1" source="node0" target="node23" style="html=1;rounded=1;;dashed=0;startArrow=classic;startSize=12;endArrow=none;strokeColor=#595959;exitX=0.000;exitY=0.701;exitDx=0;exitDy=0;entryX=1.000;entryY=0.125;entryDx=0;entryDy=0;">
      <mxGeometry width="50" height="50" relative="1" as="geometry">
        <Array as="points" />
      </mxGeometry>
    </mxCell>
    <mxCell id="edge43" edge="1" value="" parent="1" source="node0" target="node5" style="html=1;rounded=1;;dashed=0;startArrow=classic;startSize=12;endArrow=none;strokeColor=#595959;exitX=0.000;exitY=0.622;exitDx=0;exitDy=0;entryX=1.000;entryY=0.304;entryDx=0;entryDy=0;">
      <mxGeometry width="50" height="50" relative="1" as="geometry">
        <Array as="points" />
      </mxGeometry>
    </mxCell>
    <mxCell id="edge41" edge="1" value="" parent="1" source="node14" target="node12" style="html=1;rounded=1;;dashed=0;startArrow=classic;startSize=12;endArrow=none;strokeColor=#595959;exitX=0.500;exitY=0.000;exitDx=0;exitDy=0;entryX=0.500;entryY=1.001;entryDx=0;entryDy=0;">
      <mxGeometry width="50" height="50" relative="1" as="geometry">
        <Array as="points" />
      </mxGeometry>
    </mxCell>
    <mxCell id="edge35" edge="1" value="" parent="1" source="node17" target="node12" style="html=1;rounded=1;;dashed=0;startArrow=classic;startSize=12;endArrow=none;strokeColor=#595959;exitX=0.538;exitY=0.000;exitDx=0;exitDy=0;entryX=0.461;entryY=1.000;entryDx=0;entryDy=0;">
      <mxGeometry width="50" height="50" relative="1" as="geometry">
        <Array as="points" />
      </mxGeometry>
    </mxCell>
    <mxCell id="edge38" edge="1" value="" parent="1" source="node29" target="node12" style="html=1;rounded=1;;dashed=0;startArrow=classic;startSize=12;endArrow=none;strokeColor=#595959;exitX=0.670;exitY=0.000;exitDx=0;exitDy=0;entryX=0.324;entryY=1.000;entryDx=0;entryDy=0;">
      <mxGeometry width="50" height="50" relative="1" as="geometry">
        <Array as="points" />
      </mxGeometry>
    </mxCell>
    <mxCell id="edge23" edge="1" value="" parent="1" source="node26" target="node25" style="html=1;rounded=1;;dashed=0;startArrow=classic;startSize=12;endArrow=none;strokeColor=#595959;exitX=1.000;exitY=0.089;exitDx=0;exitDy=0;entryX=0.070;entryY=1.000;entryDx=0;entryDy=0;">
      <mxGeometry width="50" height="50" relative="1" as="geometry">
        <Array as="points" />
      </mxGeometry>
    </mxCell>
    <mxCell id="edge39" edge="1" value="" parent="1" source="node24" target="node2" style="html=1;rounded=1;;dashed=0;startArrow=classic;startSize=12;endArrow=none;strokeColor=#595959;exitX=1.000;exitY=0.190;exitDx=0;exitDy=0;entryX=0.000;entryY=0.958;entryDx=0;entryDy=0;">
      <mxGeometry width="50" height="50" relative="1" as="geometry">
        <Array as="points" />
      </mxGeometry>
    </mxCell>
    <mxCell id="edge79" edge="1" value="" parent="1" source="node24" target="node12" style="html=1;rounded=1;;dashed=0;startArrow=classic;startSize=12;endArrow=none;strokeColor=#595959;exitX=0.310;exitY=0.000;exitDx=0;exitDy=0;entryX=0.614;entryY=1.000;entryDx=0;entryDy=0;">
      <mxGeometry width="50" height="50" relative="1" as="geometry">
        <Array as="points" />
      </mxGeometry>
    </mxCell>
    <mxCell id="edge24" edge="1" value="" parent="1" source="node24" target="node15" style="html=1;rounded=1;;dashed=0;startArrow=classic;startSize=12;endArrow=none;strokeColor=#595959;exitX=0.727;exitY=0.000;exitDx=0;exitDy=0;entryX=0.060;entryY=1.000;entryDx=0;entryDy=0;">
      <mxGeometry width="50" height="50" relative="1" as="geometry">
        <Array as="points" />
      </mxGeometry>
    </mxCell>
    <mxCell id="edge42" edge="1" value="" parent="1" source="node24" target="node6" style="html=1;rounded=1;;dashed=0;startArrow=classic;startSize=12;endArrow=none;strokeColor=#595959;exitX=0.796;exitY=0.000;exitDx=0;exitDy=0;entryX=0.000;entryY=0.951;entryDx=0;entryDy=0;">
      <mxGeometry width="50" height="50" relative="1" as="geometry">
        <Array as="points" />
      </mxGeometry>
    </mxCell>
    <mxCell id="edge17" edge="1" value="" parent="1" source="node23" target="node31" style="html=1;rounded=1;;dashed=0;startArrow=classic;startSize=12;endArrow=none;strokeColor=#595959;exitX=1.000;exitY=0.976;exitDx=0;exitDy=0;entryX=0.160;entryY=0.000;entryDx=0;entryDy=0;">
      <mxGeometry width="50" height="50" relative="1" as="geometry">
        <Array as="points" />
      </mxGeometry>
    </mxCell>
    <mxCell id="edge19" edge="1" value="" parent="1" source="node23" target="node16" style="html=1;rounded=1;;dashed=0;startArrow=classic;startSize=12;endArrow=none;strokeColor=#595959;exitX=0.771;exitY=0.000;exitDx=0;exitDy=0;entryX=0.069;entryY=1.000;entryDx=0;entryDy=0;">
      <mxGeometry width="50" height="50" relative="1" as="geometry">
        <Array as="points" />
      </mxGeometry>
    </mxCell>
    <mxCell id="edge52" edge="1" value="" parent="1" source="node23" target="node24" style="html=1;rounded=1;;dashed=0;startArrow=classic;startSize=12;endArrow=none;strokeColor=#595959;exitX=0.507;exitY=0.000;exitDx=0;exitDy=0;entryX=0.492;entryY=1.000;entryDx=0;entryDy=0;">
      <mxGeometry width="50" height="50" relative="1" as="geometry">
        <Array as="points" />
      </mxGeometry>
    </mxCell>
    <mxCell id="edge12" edge="1" value="" parent="1" source="node5" target="node2" style="html=1;rounded=1;;dashed=0;startArrow=classic;startSize=12;endArrow=none;strokeColor=#595959;exitX=1.000;exitY=0.358;exitDx=0;exitDy=0;entryX=0.000;entryY=0.718;entryDx=0;entryDy=0;">
      <mxGeometry width="50" height="50" relative="1" as="geometry">
        <Array as="points" />
      </mxGeometry>
    </mxCell>
    <mxCell id="edge13" edge="1" value="" parent="1" source="node5" target="node12" style="html=1;rounded=1;;dashed=0;startArrow=classic;startSize=12;endArrow=none;strokeColor=#595959;exitX=0.236;exitY=0.000;exitDx=0;exitDy=0;entryX=0.652;entryY=1.000;entryDx=0;entryDy=0;">
      <mxGeometry width="50" height="50" relative="1" as="geometry">
        <Array as="points" />
      </mxGeometry>
    </mxCell>
    <mxCell id="edge29" edge="1" value="" parent="1" source="node5" target="node15" style="html=1;rounded=1;;dashed=0;startArrow=classic;startSize=12;endArrow=none;strokeColor=#595959;exitX=0.778;exitY=0.000;exitDx=0;exitDy=0;entryX=0.000;entryY=0.984;entryDx=0;entryDy=0;">
      <mxGeometry width="50" height="50" relative="1" as="geometry">
        <Array as="points" />
      </mxGeometry>
    </mxCell>
  </root>
</mxGraphModel>